<svg width="36" height="36" viewBox="0 0 36 36" fill="none" xmlns="http://www.w3.org/2000/svg">
<path d="M0 4C0 1.79086 1.79086 0 4 0H32C34.2091 0 36 1.79086 36 4V32C36 34.2091 34.2091 36 32 36H4C1.79086 36 0 34.2091 0 32V4Z" fill="#FFE812"/>
<path d="M18 5.06244C9.92277 5.06244 3.37509 10.2253 3.37509 16.5937C3.37509 20.7111 6.11253 24.3239 10.2302 26.3639C10.0061 27.1365 8.79064 31.3342 8.74226 31.664C8.74226 31.664 8.71317 31.9118 8.87359 32.0063C9.034 32.1007 9.22279 32.0273 9.22279 32.0273C9.68287 31.9631 14.5586 28.5383 15.4024 27.9436C16.2454 28.063 17.1136 28.125 18 28.125C26.0773 28.125 32.6249 22.9624 32.6249 16.5938C32.6249 10.2253 26.0771 5.06258 18 5.06258V5.06244Z" fill="#371D1E"/>
<path d="M9.91416 20.6191C9.4489 20.6191 9.07047 20.2577 9.07047 19.8133V14.8006H7.75387C7.29725 14.8006 6.92587 14.43 6.92587 13.9745C6.92587 13.519 7.29739 13.1484 7.75387 13.1484H12.0744C12.5311 13.1484 12.9024 13.519 12.9024 13.9745C12.9024 14.43 12.5309 14.8006 12.0744 14.8006H10.7579V19.8133C10.7579 20.2577 10.3794 20.6191 9.91416 20.6191ZM17.3127 20.6082C16.9609 20.6082 16.6917 20.4653 16.6106 20.2355L16.1929 19.1417H13.62L13.202 20.2361C13.121 20.4654 12.852 20.6082 12.5003 20.6082C12.3152 20.6083 12.1322 20.5687 11.9639 20.4917C11.7313 20.3844 11.5077 20.0893 11.7638 19.2936L13.7821 13.9813C13.9243 13.5772 14.3561 13.161 14.9058 13.1485C15.4569 13.1609 15.8887 13.5774 16.0311 13.9821L18.0486 19.292C18.3053 20.0896 18.0817 20.3848 17.8491 20.4918C17.6808 20.5686 17.4978 20.6083 17.3127 20.6082ZM15.7492 17.6472L14.9064 15.2531L14.0635 17.6472H15.749H15.7492ZM19.4064 20.4961C18.9604 20.4961 18.5978 20.1491 18.5978 19.7227V13.9922C18.5978 13.527 18.9843 13.1485 19.4591 13.1485C19.9338 13.1485 20.3203 13.527 20.3203 13.9922V18.9493H22.1133C22.5592 18.9493 22.9218 19.2963 22.9218 19.7227C22.9218 20.1491 22.5591 20.4961 22.1133 20.4961H19.4062H19.4064ZM24.094 20.6082C23.6287 20.6082 23.2503 20.2297 23.2503 19.7645V13.9922C23.2503 13.527 23.6287 13.1485 24.094 13.1485C24.5592 13.1485 24.9377 13.527 24.9377 13.9922V15.8058L27.2918 13.4516C27.4129 13.3305 27.5792 13.2639 27.7598 13.2639C27.9705 13.2639 28.182 13.3547 28.3404 13.513C28.4881 13.6606 28.5764 13.8507 28.5885 14.0479C28.6008 14.247 28.5345 14.4293 28.4023 14.5616L26.4795 16.4841L28.5564 19.2355C28.6919 19.4138 28.7502 19.639 28.7184 19.8606C28.688 20.0824 28.5701 20.2829 28.3911 20.4171C28.2452 20.5279 28.0668 20.5878 27.8836 20.5874C27.6185 20.5887 27.3685 20.4643 27.2096 20.252L25.2309 17.6302L24.9381 17.923V19.7639C24.9375 20.2299 24.56 20.6074 24.0941 20.608L24.094 20.6082Z" fill="#FFE812"/>
</svg>
