<svg width="71" height="71" viewBox="0 0 71 71" fill="none" xmlns="http://www.w3.org/2000/svg">
<path d="M33.7931 10.3766C33.7931 5.04424 29.4703 0.721466 24.1379 0.721466C18.8055 0.721466 14.4828 5.04424 14.4828 10.3766V15.2042H9.65517C4.32277 15.2042 0 19.527 0 24.8594C0 30.1918 4.32277 34.5146 9.65517 34.5146H33.7931V10.3766Z" fill="#1E2948"/>
<path d="M36.4855 61.3448C36.4855 66.6772 40.8082 71 46.1406 71C51.473 71 55.7958 66.6772 55.7958 61.3448L55.7958 56.5172L60.6234 56.5172C65.9558 56.5172 70.2786 52.1945 70.2786 46.8621C70.2786 41.5297 65.9558 37.2069 60.6234 37.2069L36.4855 37.2069L36.4855 61.3448Z" fill="#1E2948"/>
<path d="M36.4855 10.3766C36.4855 5.04424 40.8082 0.721466 46.1406 0.721466C51.473 0.721466 55.7958 5.04424 55.7958 10.3766V15.2042H60.6234C65.9558 15.2042 70.2786 19.527 70.2786 24.8594C70.2786 30.1918 65.9558 34.5146 60.6234 34.5146H36.4855V10.3766Z" fill="#FFB707"/>
<path d="M33.7931 61.3448C33.7931 66.6772 29.4703 71 24.1379 71C18.8055 71 14.4828 66.6772 14.4828 61.3448L14.4828 56.5172L9.65517 56.5172C4.32277 56.5172 4.43754e-07 52.1945 5.69582e-07 46.8621C6.95411e-07 41.5297 4.32277 37.2069 9.65517 37.2069L33.7931 37.2069L33.7931 61.3448Z" fill="#1E2948"/>
</svg>
