<svg width="28" height="28" viewBox="0 0 28 28" fill="none" xmlns="http://www.w3.org/2000/svg">
<path fill-rule="evenodd" clip-rule="evenodd" d="M6.3 6C4.47746 6 3 7.43269 3 9.2V18.8C3 20.5673 4.47746 22 6.3 22H21.7C23.5225 22 25 20.5673 25 18.8V9.2C25 7.43269 23.5225 6 21.7 6H6.3Z" fill="#FFC700"/>
<mask id="mask0_916_970" style="mask-type:alpha" maskUnits="userSpaceOnUse" x="2" y="5" width="24" height="18">
<path d="M7.00004 17.7917C7.00004 17.3084 7.39179 16.9167 7.87504 16.9167H9.04171C9.52496 16.9167 9.91671 17.3084 9.91671 17.7917C9.91671 18.2749 9.52496 18.6667 9.04171 18.6667H7.87504C7.39179 18.6667 7.00004 18.2749 7.00004 17.7917Z" fill="#FFFFFF"/>
<path d="M11.9584 16.9167C11.4751 16.9167 11.0834 17.3084 11.0834 17.7917C11.0834 18.2749 11.4751 18.6667 11.9584 18.6667H16.625C17.1083 18.6667 17.5 18.2749 17.5 17.7917C17.5 17.3084 17.1083 16.9167 16.625 16.9167H11.9584Z" fill="#FFFFFF"/>
<path fill-rule="evenodd" clip-rule="evenodd" d="M5.83337 5.25C3.90038 5.25 2.33337 6.817 2.33337 8.75V19.25C2.33337 21.183 3.90038 22.75 5.83337 22.75H22.1667C24.0997 22.75 25.6667 21.183 25.6667 19.25V8.75C25.6667 6.817 24.0997 5.25 22.1667 5.25H5.83337ZM4.66671 8.75C4.66671 8.10567 5.18904 7.58333 5.83337 7.58333H22.1667C22.811 7.58333 23.3334 8.10567 23.3334 8.75V9.33333H4.66671V8.75ZM4.66671 11.6667V19.25C4.66671 19.8943 5.18904 20.4167 5.83337 20.4167H22.1667C22.811 20.4167 23.3334 19.8943 23.3334 19.25V11.6667H4.66671Z" fill="#FFFFFF"/>
</mask>
<g mask="url(#mask0_916_970)">
<rect x="6.10352e-05" width="28" height="28" fill="#081591"/>
</g>
</svg>
