<svg width="28" height="28" viewBox="0 0 28 28" fill="none" xmlns="http://www.w3.org/2000/svg">
<mask id="mask0_916_2428" style="mask-type:alpha" maskUnits="userSpaceOnUse" x="2" y="5" width="24" height="18">
<path d="M6.99999 17.7917C6.99999 17.3084 7.39175 16.9167 7.87499 16.9167H9.04166C9.52491 16.9167 9.91666 17.3084 9.91666 17.7917C9.91666 18.2749 9.52491 18.6667 9.04166 18.6667H7.87499C7.39175 18.6667 6.99999 18.2749 6.99999 17.7917Z" fill="#FFF"/>
<path d="M11.9583 16.9167C11.4751 16.9167 11.0833 17.3084 11.0833 17.7917C11.0833 18.2749 11.4751 18.6667 11.9583 18.6667H16.625C17.1082 18.6667 17.5 18.2749 17.5 17.7917C17.5 17.3084 17.1082 16.9167 16.625 16.9167H11.9583Z" fill="#FFF"/>
<path fill-rule="evenodd" clip-rule="evenodd" d="M5.83333 5.25C3.90033 5.25 2.33333 6.817 2.33333 8.75V19.25C2.33333 21.183 3.90033 22.75 5.83333 22.75H22.1667C24.0997 22.75 25.6667 21.183 25.6667 19.25V8.75C25.6667 6.817 24.0997 5.25 22.1667 5.25H5.83333ZM4.66666 8.75C4.66666 8.10567 5.189 7.58333 5.83333 7.58333H22.1667C22.811 7.58333 23.3333 8.10567 23.3333 8.75V9.33333H4.66666V8.75ZM4.66666 11.6667V19.25C4.66666 19.8943 5.189 20.4167 5.83333 20.4167H22.1667C22.811 20.4167 23.3333 19.8943 23.3333 19.25V11.6667H4.66666Z" fill="#FFFFFF"/>
</mask>
<g mask="url(#mask0_916_2428)">
<rect width="28" height="28" fill="#ABB3BA"/>
</g>
</svg>
