<svg width="28" height="28" viewBox="0 0 28 28" fill="none" xmlns="http://www.w3.org/2000/svg">
<mask id="mask0_916_2447" style="mask-type:alpha" maskUnits="userSpaceOnUse" x="2" y="2" width="24" height="24">
<path fill-rule="evenodd" clip-rule="evenodd" d="M16.6881 11.3476C20.0898 14.9643 14.9736 20.0915 11.3504 16.6906C11.3372 16.6782 11.3243 16.6654 11.3119 16.6521C7.90825 13.0335 13.0284 7.91079 16.6495 11.3091C16.6628 11.3215 16.6756 11.3344 16.6881 11.3476ZM15.432 12.5666C13.4665 10.7577 10.7588 13.4718 12.5681 15.4332C14.5315 17.2406 17.2431 14.53 15.432 12.5666Z" fill="#FFF"/>
<path fill-rule="evenodd" clip-rule="evenodd" d="M17.0345 22.3692L16.8986 23.1412C16.8151 23.6727 16.5753 24.1345 16.1803 24.4751C15.8052 24.7985 15.3743 24.9402 15.025 25.008C14.6752 25.076 14.3272 25.0848 14.0531 25.0831C13.8707 25.082 13.7596 25.0785 13.664 25.0754C13.5684 25.0724 13.4883 25.0698 13.3678 25.0707C12.7795 25.0803 12.2527 24.8887 11.8433 24.51C11.4656 24.1606 11.2683 23.7259 11.1544 23.3792C11.039 23.0279 10.9779 22.6662 10.9357 22.3869L10.9325 22.3652C10.6934 22.2781 10.4583 22.1807 10.2278 22.0733C10.0259 22.2195 9.83355 22.3546 9.6585 22.4647C9.31977 22.6778 8.86582 22.9196 8.31837 22.9425C7.72527 22.9674 7.23902 22.7318 6.84543 22.4431C6.48032 22.1753 6.10862 21.7976 5.7138 21.3653C5.30264 20.961 5.07739 20.4598 5.05845 19.9152C5.04063 19.403 5.20896 18.9565 5.37286 18.6315C5.53957 18.3009 5.75144 18.001 5.92001 17.7718L5.93108 17.7568C5.82145 17.522 5.7222 17.2825 5.63364 17.0389L4.86 16.903C4.32886 16.8197 3.86705 16.5806 3.52602 16.1859C3.20209 15.8111 3.06011 15.3802 2.99206 15.0309C2.92392 14.6811 2.91515 14.3332 2.91684 14.0593C2.91797 13.8768 2.92152 13.7658 2.92457 13.6704C2.92762 13.5749 2.93018 13.4949 2.92931 13.3745C2.91961 12.7858 3.11181 12.2589 3.49093 11.8498C3.84068 11.4725 4.27557 11.2755 4.6223 11.1619C4.97367 11.0467 5.33553 10.9856 5.61505 10.9435L5.63767 10.9401C5.72466 10.702 5.82186 10.4678 5.92899 10.2381C5.78298 10.0368 5.64817 9.84514 5.53817 9.67058C5.32489 9.33214 5.0826 8.87814 5.0597 8.33035C5.03489 7.73686 5.27115 7.25057 5.56004 6.8574C5.82841 6.49213 6.20704 6.12028 6.6403 5.72529C7.0433 5.31878 7.5404 5.09002 8.08525 5.06722C8.59945 5.04569 9.04674 5.21239 9.37289 5.37638C9.70334 5.54253 10.0026 5.75459 10.2304 5.92224L10.2485 5.93559C10.4804 5.8275 10.7169 5.72946 10.9573 5.64176C10.9984 5.39232 11.0401 5.15773 11.0864 4.95538C11.1753 4.56702 11.3241 4.07426 11.6922 3.66966C12.0933 3.22887 12.6048 3.0486 13.0916 2.97316C13.5431 2.90319 14.0788 2.90778 14.6718 2.93539C15.2455 2.93414 15.759 3.12574 16.1597 3.49665C16.5374 3.84622 16.7346 4.28098 16.8484 4.62765C16.9637 4.97885 17.0247 5.34054 17.0669 5.61964L17.0702 5.64112C17.3097 5.72843 17.5453 5.82605 17.7764 5.93367L17.7889 5.92438C18.0147 5.75695 18.3113 5.54564 18.6395 5.38004C18.964 5.21634 19.4083 5.05084 19.92 5.07198C20.4619 5.09437 20.9564 5.32084 21.359 5.72196C21.7983 6.12119 22.1803 6.49688 22.4499 6.86695C22.7405 7.26601 22.9719 7.75571 22.9417 8.34986C22.914 8.89437 22.6707 9.34612 22.4595 9.68174C22.3507 9.85478 22.2163 10.047 22.0714 10.2489C22.1795 10.4805 22.2774 10.7165 22.365 10.9563L22.3888 10.9598C22.668 11.0019 23.0297 11.0626 23.3808 11.1776C23.7276 11.2911 24.1624 11.488 24.5121 11.8656C24.8926 12.2765 25.0842 12.8059 25.0735 13.3967C25.0731 13.4206 25.0719 13.4444 25.07 13.4682C25.066 13.5186 25.0667 13.613 25.0731 13.8113L25.0744 13.8507C25.0798 14.0166 25.0868 14.2326 25.0814 14.4488C25.0755 14.68 25.055 14.9679 24.9824 15.2554C24.9179 15.5105 24.7925 15.846 24.5263 16.1378C24.2606 16.473 23.9127 16.6526 23.6696 16.7521C23.3844 16.8687 23.0838 16.9381 22.8363 16.9848C22.6759 17.015 22.5131 17.0399 22.3676 17.0608C22.2801 17.3008 22.1823 17.5367 22.0744 17.7682C22.2205 17.9694 22.3553 18.1612 22.4653 18.3357C22.6786 18.6741 22.921 19.1281 22.944 19.6759C22.9689 20.2695 22.7326 20.7558 22.4437 21.1491C22.1752 21.5144 21.7965 21.8862 21.3631 22.2812C20.9601 22.6877 20.4631 22.9164 19.9182 22.9392C19.404 22.9607 18.9568 22.794 18.6306 22.63C18.3002 22.4639 18.0008 22.2518 17.7731 22.0842L17.7553 22.071C17.5195 22.181 17.2791 22.2805 17.0345 22.3692ZM13.3712 22.651C13.3829 22.6866 13.3937 22.715 13.4031 22.7373C13.5129 22.7374 13.6235 22.7402 13.7228 22.7428L13.7541 22.7436C13.8651 22.7465 13.966 22.7492 14.0675 22.7498C14.2943 22.7512 14.459 22.7411 14.5798 22.7176C14.5888 22.7158 14.5972 22.7141 14.6049 22.7123L14.8591 21.2682C14.9377 20.8217 15.2678 20.4612 15.7057 20.3437C16.2541 20.1965 16.7808 19.9781 17.2725 19.6943C17.6499 19.4764 18.1174 19.487 18.4845 19.7219C18.6591 19.8336 18.8596 19.9836 19.0231 20.1059C19.0712 20.1419 19.1161 20.1755 19.1562 20.205C19.3677 20.3606 19.5347 20.4729 19.6788 20.5454C19.7121 20.5621 19.7397 20.5744 19.762 20.5834L19.7676 20.5783C20.2055 20.1802 20.4398 19.9356 20.5634 19.7674C20.5709 19.7571 20.5776 19.7477 20.5836 19.7391C20.5646 19.702 20.5355 19.6498 20.4914 19.58C20.373 19.3921 20.2174 19.1806 19.9964 18.8802C19.9256 18.784 19.848 18.6786 19.7629 18.562C19.4905 18.1889 19.4639 17.6902 19.695 17.2903C19.9794 16.7981 20.1978 16.2724 20.345 15.7251C20.4525 15.3256 20.7635 15.0128 21.1624 14.9031C21.3759 14.8445 21.6317 14.8083 21.8137 14.7825L21.8951 14.7711C22.0775 14.7454 22.2429 14.7222 22.4043 14.6918C22.5515 14.664 22.6591 14.6366 22.7332 14.6119C22.7403 14.5599 22.7463 14.4875 22.7488 14.3901C22.7524 14.2437 22.7475 14.0909 22.7418 13.9108L22.7405 13.8733C22.7365 13.7485 22.7313 13.5851 22.7364 13.425C22.7149 13.4161 22.688 13.406 22.6548 13.3951C22.5009 13.3447 22.3028 13.3065 22.0415 13.2672C21.9941 13.26 21.941 13.2524 21.8842 13.2443C21.6793 13.215 21.4265 13.1788 21.2184 13.1326C20.7945 13.0386 20.458 12.7169 20.3448 12.2978C20.1967 11.7494 19.9784 11.223 19.6946 10.7324C19.4651 10.3356 19.4893 9.84113 19.7564 9.46854C19.8581 9.32669 19.9488 9.20166 20.0302 9.0894C20.2281 8.81662 20.3714 8.6191 20.4846 8.43917C20.5326 8.36283 20.5635 8.30689 20.5832 8.26805C20.5774 8.25972 20.571 8.25058 20.5637 8.24061C20.4422 8.07372 20.2088 7.8286 19.7682 7.42918L19.767 7.42804C19.7462 7.43658 19.7208 7.44802 19.6904 7.46332C19.5502 7.53407 19.3868 7.64437 19.1787 7.79867C19.1377 7.82902 19.0915 7.86388 19.0419 7.90133C18.8819 8.022 18.6863 8.16961 18.5167 8.27983C18.1489 8.519 17.678 8.53157 17.2979 8.31236C16.8052 8.02817 16.2788 7.80981 15.7307 7.66271C15.3108 7.55001 14.9884 7.21318 14.8942 6.78875C14.8484 6.58241 14.8122 6.3309 14.7829 6.1269C14.7747 6.06976 14.767 6.01596 14.7598 5.96832C14.7204 5.7077 14.682 5.50949 14.6314 5.35539C14.6195 5.31917 14.6085 5.29039 14.599 5.26788L14.5942 5.26766C13.9969 5.23909 13.6558 5.24691 13.4489 5.27897C13.4354 5.28106 13.4234 5.28312 13.4126 5.28512C13.3989 5.32649 13.3811 5.38797 13.3609 5.47604C13.313 5.6855 13.2739 5.93011 13.2197 6.26941C13.198 6.40519 13.1739 6.55615 13.1459 6.72606C13.0713 7.1773 12.74 7.54337 12.2984 7.66239C11.7498 7.81024 11.2224 8.02891 10.7302 8.31254C10.3529 8.53001 9.88587 8.51921 9.519 8.28452C9.34444 8.17285 9.14388 8.02282 8.98043 7.90055C8.93239 7.86461 8.88732 7.8309 8.8473 7.80144C8.63584 7.64581 8.46883 7.53349 8.32472 7.46103C8.29143 7.44429 8.26382 7.43201 8.2415 7.423L8.23601 7.42802C7.79827 7.82606 7.56399 8.07074 7.44038 8.23898C7.4328 8.2493 7.42606 8.25875 7.42008 8.26738C7.43908 8.30448 7.46817 8.35666 7.51221 8.42656C7.63065 8.6145 7.78647 8.8263 8.00779 9.12712C8.07842 9.22311 8.15573 9.32819 8.2406 9.44444C8.51312 9.81765 8.53966 10.3165 8.30828 10.7166C8.0241 11.2079 7.80566 11.7334 7.65847 12.2807C7.54549 12.7009 7.20814 13.0232 6.78331 13.117C6.57761 13.1624 6.32673 13.1983 6.12286 13.2275C6.06509 13.2358 6.01094 13.2435 5.96282 13.2508C5.70205 13.2901 5.50351 13.3285 5.34916 13.3791C5.31354 13.3908 5.28509 13.4016 5.26271 13.411C5.26253 13.5204 5.25977 13.6305 5.25717 13.7293L5.25635 13.7606C5.25342 13.8715 5.25076 13.9724 5.25013 14.0737C5.24874 14.3003 5.25892 14.4645 5.28235 14.5848L5.2874 14.609L6.73371 14.8631C7.18016 14.9416 7.54076 15.2715 7.65847 15.7092C7.80572 16.2568 8.02423 16.7829 8.30828 17.274C8.52752 17.653 8.51606 18.1229 8.2786 18.4908C8.17104 18.6574 8.02483 18.8528 7.90434 19.0137C7.86621 19.0647 7.83058 19.1123 7.79965 19.1543C7.64453 19.3652 7.53048 19.535 7.45629 19.6821C7.4387 19.717 7.42578 19.7459 7.4163 19.7694C7.81314 20.205 8.05736 20.4383 8.22541 20.5616C8.23619 20.5695 8.24604 20.5765 8.25498 20.5826C8.2923 20.5636 8.34505 20.5343 8.41598 20.4897C8.60402 20.3714 8.81585 20.2159 9.11654 19.995C9.21286 19.9243 9.31831 19.8469 9.43501 19.7618C9.80774 19.4902 10.3055 19.4636 10.705 19.694C11.1978 19.9782 11.7242 20.1966 12.2722 20.3437C12.6925 20.4565 13.015 20.7937 13.1089 21.2185C13.1544 21.4242 13.1904 21.6749 13.2196 21.8786C13.2279 21.9364 13.2356 21.9904 13.2429 22.0385C13.2822 22.2989 13.3206 22.4971 13.3712 22.651Z" fill="#FFF"/>
</mask>
<g mask="url(#mask0_916_2447)">
    <rect width="28" height="28" fill="#ABB3BA"/>
</g>
</svg>
