<svg width="28" height="28" viewBox="0 0 28 28" fill="none" xmlns="http://www.w3.org/2000/svg">
<mask id="mask0_916_988" style="mask-type:alpha" maskUnits="userSpaceOnUse" x="3" y="3" width="22" height="22">
<path d="M9.04167 8.75C8.55842 8.75 8.16667 9.14175 8.16667 9.625C8.16667 10.1082 8.55842 10.5 9.04167 10.5H16.625C17.1082 10.5 17.5 10.1082 17.5 9.625C17.5 9.14175 17.1082 8.75 16.625 8.75H9.04167Z" fill="#FFF"/>
<path d="M8.16667 13.125C8.16667 12.6418 8.55842 12.25 9.04167 12.25H11.9583C12.4416 12.25 12.8333 12.6418 12.8333 13.125C12.8333 13.6082 12.4416 14 11.9583 14H9.04167C8.55842 14 8.16667 13.6082 8.16667 13.125Z" fill="#FFF"/>
<path fill-rule="evenodd" clip-rule="evenodd" d="M14 3.5C14.6443 3.5 15.1667 4.02233 15.1667 4.66667H21C22.933 4.66667 24.5 6.23367 24.5 8.16667V16.3333C24.5 18.2663 22.933 19.8333 21 19.8333H15.1667V22.1667H16.3333C16.9777 22.1667 17.5 22.689 17.5 23.3333C17.5 23.9777 16.9777 24.5 16.3333 24.5H11.6667C11.0223 24.5 10.5 23.9777 10.5 23.3333C10.5 22.689 11.0223 22.1667 11.6667 22.1667H12.8333V19.8333H7C5.067 19.8333 3.5 18.2663 3.5 16.3333V8.16667C3.5 6.23367 5.067 4.66667 7 4.66667L12.8333 4.66667C12.8333 4.02233 13.3557 3.5 14 3.5ZM7 7H21C21.6443 7 22.1667 7.52233 22.1667 8.16667V16.3333C22.1667 16.9777 21.6443 17.5 21 17.5H7C6.35567 17.5 5.83333 16.9777 5.83333 16.3333V8.16667C5.83333 7.52233 6.35567 7 7 7Z" fill="#FFF"/>
</mask>
<g mask="url(#mask0_916_988)">
<rect width="28" height="28" fill="#ABB3BA"/>
</g>
</svg>
